<svg width="41" height="41" viewBox="0 0 41 41" fill="none" xmlns="http://www.w3.org/2000/svg">
<path fill-rule="evenodd" clip-rule="evenodd" d="M34.1666 1.70825C36.9971 1.70825 39.2916 4.0028 39.2916 6.83325V34.1666C39.2916 36.9971 36.9971 39.2916 34.1666 39.2916H6.83325C4.0028 39.2916 1.70825 36.9971 1.70825 34.1666V6.83325C1.70825 4.0028 4.0028 1.70825 6.83325 1.70825H34.1666ZM34.1666 5.12492C35.1101 5.12492 35.8749 5.88977 35.8749 6.83325V34.1666C35.8749 35.1101 35.1101 35.8749 34.1666 35.8749H25.6249V23.9164H29.1718C29.907 23.9164 30.5598 23.4459 30.7925 22.7483L31.5492 20.4779C31.8258 19.6481 31.2083 18.7914 30.3338 18.7914H25.6249V15.3748C25.6249 14.5206 26.4791 13.6664 27.3333 13.6664H30.7499C31.6934 13.6664 32.4583 12.9016 32.4583 11.9581V10.7862C32.4583 10.2344 32.1058 9.73964 31.5721 9.59882C29.3329 9.00787 27.3333 9.00787 27.3333 9.00787C23.0624 9.00787 20.4999 11.9581 20.4999 14.5206V18.7914H17.0833C16.1398 18.7914 15.3749 19.5562 15.3749 20.4997V22.2081C15.3749 23.1516 16.1398 23.9164 17.0833 23.9164H20.4999V35.8749H6.83325C5.88977 35.8749 5.12492 35.1101 5.12492 34.1666V6.83325C5.12492 5.88977 5.88977 5.12492 6.83325 5.12492H34.1666Z" fill="#104860"/>
</svg>
