<svg width="134" height="133" viewBox="0 0 134 133" fill="none" xmlns="http://www.w3.org/2000/svg">
<path d="M133.188 65.8816C133.188 102.66 105.153 132.832 68.3744 132.832C31.5956 132.832 0 102.66 0 65.8816C0 29.1028 39.0741 0 75.8528 0C112.632 0 133.188 29.1028 133.188 65.8816Z" fill="#6CE6CE"/>
<path d="M42.7776 99.2448C43.1901 96.9266 43.6357 94.6631 43.9682 92.3836C44.3622 89.6821 44.8799 86.9847 44.7345 84.234C44.5933 81.561 43.7142 79.1082 42.3513 76.8167C41.3445 75.1239 40.0968 73.5796 39.1709 71.8361C37.2975 68.3084 36.1255 64.5763 35.727 60.601C35.0818 54.163 36.032 48.0363 39.5187 42.4741C43.3851 36.3061 48.859 32.0695 55.8777 29.8823C58.4631 29.0766 61.1431 28.5992 63.8723 28.6013C68.1322 28.6046 72.3538 28.8994 76.3913 30.4288C84.1806 33.3795 89.5839 38.6517 92.3648 46.4559C92.972 48.16 93.2335 49.9432 93.4055 51.7472C93.5457 53.2176 93.3218 54.6443 93.1662 56.0866C93.0902 56.791 93.1585 57.4569 93.5709 58.0949C95.3185 60.7983 97.0428 63.5165 98.7534 66.2429C99.3116 67.1326 99.8265 68.043 99.8981 69.14C100.042 71.3487 98.8297 72.9621 96.6149 73.434C96.1914 73.5242 95.7654 73.5774 95.3281 73.5714C94.6773 73.5625 94.6629 73.6005 94.8125 74.2448C94.9572 74.8676 95.1189 75.4883 95.2243 76.1179C95.4017 77.1788 95.1685 78.1397 94.3303 78.8751C94.0392 79.1305 93.9973 79.3325 94.1732 79.6673C94.664 80.6013 94.4844 81.4663 93.8344 82.2676C93.5887 82.5704 93.3404 82.8751 93.133 83.2034C92.8822 83.6002 92.8826 84.037 92.9676 84.4964C93.289 86.2347 93.5583 87.9949 93.1551 89.7414C92.5449 92.3845 90.58 94.0787 87.8506 94.4478C86.3424 94.6518 84.8352 94.5639 83.3199 94.4913C81.7689 94.4169 80.2136 94.3991 78.662 94.3124C78.3533 94.2951 78.2332 94.4785 78.1746 94.7169C77.6844 96.7114 77.1816 98.6999 77.0538 100.765C77.0063 101.534 77.0251 102.316 76.8479 103.079C76.6691 103.849 76.1037 104.262 75.3533 104.128C74.7209 104.015 74.325 103.429 74.4018 102.729C74.6232 100.711 74.6719 98.6764 75.0825 96.5426C73.5185 97.7122 71.9553 98.642 70.3966 99.5787C70.2285 99.6797 70.0427 99.7603 69.8951 99.8851C68.9156 100.713 67.9925 100.614 66.9645 99.8909C65.1708 98.6287 63.1653 97.6562 61.4825 96.248C57.8633 93.2194 55.1744 89.584 54.3393 84.8429C54.178 83.9272 54.0674 82.9998 54.0669 82.0657C54.0654 79.2259 54.0649 76.3861 54.0658 73.5463C54.0661 72.6817 54.3146 72.4295 55.1971 72.3159C58.5071 71.89 61.7449 71.2232 64.6728 69.526C65.5924 68.993 66.455 68.385 67.2781 67.7171C68.0165 67.118 68.544 67.1076 69.2869 67.7134C72.2531 70.132 75.6786 71.4713 79.4644 71.9796C80.2803 72.0891 81.0942 72.2133 81.9092 72.3293C82.719 72.4445 82.9794 72.7418 82.9823 73.5757C82.9858 74.626 83.011 75.6773 82.9766 76.7265C82.9261 78.2647 83.0702 79.7954 83.1186 81.3292C83.218 84.4743 82.2766 87.3368 80.8274 90.0766C80.5666 90.5698 80.2822 91.0507 79.9832 91.5825C80.9262 91.9217 81.856 91.9736 82.757 92.0118C84.0135 92.0652 85.2685 92.2452 86.5296 92.1563C88.9072 91.9889 90.2864 91.0071 90.8584 88.8903C90.9581 88.5212 90.9517 88.1597 90.911 87.7941C90.7696 86.524 90.5876 85.2577 90.4793 83.985C90.3892 82.9267 90.7777 82.0065 91.4911 81.214C91.6766 81.0079 91.9488 80.8299 91.7508 80.4644C91.5674 80.1259 91.2826 80.1057 90.9539 80.1003C89.8676 80.0826 89.2878 79.3189 89.6665 78.4314C89.8198 78.072 90.1084 77.8997 90.4686 77.8114C91.0015 77.6809 91.5483 77.591 92.065 77.4147C92.7437 77.183 92.8774 76.8527 92.7345 76.158C92.509 75.0612 92.1077 73.9885 92.2386 72.8394C92.3495 71.8667 93.1581 71.1508 94.153 71.1517C94.8411 71.1524 95.5289 71.1774 96.2032 70.9892C97.3277 70.6752 97.7657 69.781 97.272 68.7319C96.614 67.3338 95.6939 66.0875 94.8766 64.7822C93.8311 63.1125 92.8137 61.4215 91.6817 59.8099C90.7243 58.4469 90.5032 56.9451 90.7416 55.4147C91.235 52.2464 90.7709 49.2082 89.5861 46.2906C86.8092 39.4524 81.7814 34.9437 74.73 32.5962C71.0128 31.3588 67.186 30.8241 63.2878 31.1114C56.2841 31.6276 50.1544 34.1704 45.2518 39.2374C41.8177 42.7866 39.5551 46.9877 38.593 51.8257C38.0948 54.3309 37.8685 56.8793 38.1 59.4186C38.5555 64.4152 40.1669 69.0374 43.0205 73.2185C44.755 75.7599 46.2711 78.403 46.8687 81.4692C47.2545 83.4485 47.2689 85.4235 47.0862 87.4281C46.8433 90.0946 46.4269 92.7339 45.9836 95.3696C45.55 97.9475 45.043 100.513 44.5565 103.083C44.4088 103.863 43.8643 104.243 43.1185 104.133C42.4716 104.038 42.0342 103.512 42.1367 102.781C42.3005 101.612 42.5483 100.455 42.7776 99.2448ZM80.2598 84.7202C80.5102 83.581 80.7086 82.4351 80.6575 81.2631C80.5965 79.8664 80.4962 78.4713 80.5357 77.0713C80.5532 76.4496 80.5297 75.8268 80.5401 75.2047C80.5465 74.8241 80.3882 74.6457 79.9934 74.6013C79.3508 74.5291 78.7097 74.4297 78.0749 74.3068C74.7384 73.6608 71.6128 72.4998 68.8198 70.5496C68.4435 70.2869 68.1262 70.2885 67.7511 70.5519C67.2226 70.923 66.679 71.2785 66.1155 71.5948C63.3682 73.1371 60.4132 74.104 57.297 74.5673C56.6715 74.6603 56.5861 74.9408 56.59 75.4494C56.6062 77.53 56.6034 79.6107 56.6016 81.6914C56.6007 82.7999 56.6773 83.899 56.9322 84.9827C57.8005 88.6735 59.9477 91.5516 62.7674 94.0179C64.4014 95.4471 66.3033 96.4755 68.1249 97.6267C68.4542 97.8348 68.7199 97.728 68.9985 97.5584C71.3271 96.141 73.6541 94.7404 75.6139 92.8017C77.9007 90.5395 79.465 87.9121 80.2598 84.7202Z" fill="#104860"/>
<path d="M75.9058 45.1145C72.0341 43.0495 68.043 44.0285 65.5234 47.6322C65.3222 47.92 65.1377 48.2192 64.9415 48.5106C64.2183 49.5846 63.1756 49.5731 62.5303 48.458C61.1572 46.0853 59.1182 44.6218 56.4051 44.1376C54.1471 43.7347 52.1636 44.4309 50.4527 45.88C48.9485 47.1541 48.2233 48.8195 47.9819 50.7544C47.6108 53.7277 48.7663 56.1236 50.7898 58.1673C53.887 61.2955 57.044 64.366 60.1765 67.4602C60.4986 67.7783 60.8223 68.0938 60.8772 68.5743C60.9411 69.1324 60.7391 69.5715 60.2441 69.8513C59.7671 70.1209 59.1733 70.0271 58.7259 69.5955C57.9372 68.8348 57.1678 68.0546 56.3892 67.2837C54.0115 64.9295 51.6331 62.576 49.2552 60.2219C47.5184 58.5025 46.1569 56.5849 45.616 54.1448C44.264 48.0453 48.0292 42.6333 53.7496 41.5567C56.7042 41.0006 59.3501 41.839 61.7302 43.5896C62.3316 44.0319 62.8988 44.5156 63.4118 45.0539C63.6852 45.3408 63.878 45.3173 64.1325 45.0422C64.8379 44.2795 65.6044 43.5837 66.4831 43.0138C71.39 39.8317 78.0264 41.4736 80.9765 46.602C83.2164 50.4958 82.7633 55.2317 79.791 58.6564C78.0973 60.608 76.1619 62.3281 74.3057 64.1233C73.8838 64.5314 73.4705 64.9484 73.0394 65.3467C72.3495 65.984 71.5646 66.0461 71.0509 65.5202C70.5215 64.9783 70.6246 64.1594 71.2887 63.5112C73.1793 61.6658 75.0539 59.8044 76.9562 57.9709C78.9479 56.0511 79.9133 53.7379 79.7055 50.9942C79.5087 48.397 78.1545 46.4897 75.9058 45.1145Z" fill="white"/>
<path d="M60.8057 83.7678C60.7614 83.1222 61.0267 82.7127 61.5746 82.4718C62.1347 82.2254 62.6078 82.3776 63.0281 82.7768C64.1064 83.8008 65.199 84.8108 66.2547 85.857C66.6121 86.2112 66.8605 86.2609 67.2186 85.8774C69.5401 83.3907 71.8743 80.9157 74.2026 78.4352C74.6589 77.949 75.0735 77.4338 75.8799 77.5545C76.6669 77.6724 77.1506 78.3788 76.8866 79.1237C76.7806 79.4228 76.5895 79.664 76.3713 79.8946C73.7095 82.7057 71.0523 85.5211 68.3932 88.3349C68.1917 88.5481 67.9901 88.7615 67.7805 88.9669C67.1332 89.601 66.4785 89.6369 65.8074 89.009C64.2783 87.5784 62.7722 86.1239 61.2585 84.6773C61.0122 84.4419 60.8392 84.1644 60.8057 83.7678Z" fill="#104860"/>
</svg>
