<svg width="39" height="39" viewBox="0 0 39 39" fill="none" xmlns="http://www.w3.org/2000/svg">
<path fill-rule="evenodd" clip-rule="evenodd" d="M19.5 29.25C24.8848 29.25 29.25 24.8848 29.25 19.5C29.25 14.1152 24.8848 9.75 19.5 9.75C14.1152 9.75 9.75 14.1152 9.75 19.5C9.75 24.8848 14.1152 29.25 19.5 29.25ZM19.5 26C23.0898 26 26 23.0898 26 19.5C26 15.9101 23.0898 13 19.5 13C15.9101 13 13 15.9101 13 19.5C13 23.0898 15.9101 26 19.5 26Z" fill="#104860"/>
<path d="M29.25 8.125C28.3525 8.125 27.625 8.85254 27.625 9.75C27.625 10.6475 28.3525 11.375 29.25 11.375C30.1475 11.375 30.875 10.6475 30.875 9.75C30.875 8.85254 30.1475 8.125 29.25 8.125Z" fill="#104860"/>
<path fill-rule="evenodd" clip-rule="evenodd" d="M2.68769 6.9486C1.625 9.03424 1.625 11.7645 1.625 17.225V21.775C1.625 27.2355 1.625 29.9658 2.68769 32.0513C3.62245 33.886 5.11401 35.3776 6.9486 36.3123C9.03424 37.375 11.7645 37.375 17.225 37.375H21.775C27.2355 37.375 29.9658 37.375 32.0513 36.3123C33.886 35.3776 35.3776 33.886 36.3123 32.0513C37.375 29.9658 37.375 27.2355 37.375 21.775V17.225C37.375 11.7645 37.375 9.03424 36.3123 6.9486C35.3776 5.11401 33.886 3.62245 32.0513 2.68769C29.9658 1.625 27.2355 1.625 21.775 1.625H17.225C11.7645 1.625 9.03424 1.625 6.9486 2.68769C5.11401 3.62245 3.62245 5.11401 2.68769 6.9486ZM21.775 4.875H17.225C14.4411 4.875 12.5487 4.87753 11.0859 4.99704C9.66102 5.11345 8.93236 5.32446 8.42407 5.58345C7.20101 6.20664 6.20664 7.20101 5.58345 8.42407C5.32446 8.93236 5.11345 9.66102 4.99704 11.0859C4.87753 12.5487 4.875 14.4411 4.875 17.225V21.775C4.875 24.5589 4.87753 26.4513 4.99704 27.9141C5.11345 29.3391 5.32446 30.0677 5.58345 30.576C6.20664 31.799 7.20101 32.7933 8.42407 33.4165C8.93236 33.6755 9.66102 33.8866 11.0859 34.003C12.5487 34.1224 14.4411 34.125 17.225 34.125H21.775C24.5589 34.125 26.4513 34.1224 27.9141 34.003C29.3391 33.8866 30.0677 33.6755 30.576 33.4165C31.799 32.7933 32.7933 31.799 33.4165 30.576C33.6755 30.0677 33.8866 29.3391 34.003 27.9141C34.1224 26.4513 34.125 24.5589 34.125 21.775V17.225C34.125 14.4411 34.1224 12.5487 34.003 11.0859C33.8866 9.66102 33.6755 8.93236 33.4165 8.42407C32.7933 7.20101 31.799 6.20664 30.576 5.58345C30.0677 5.32446 29.3391 5.11345 27.9141 4.99704C26.4513 4.87753 24.5589 4.875 21.775 4.875Z" fill="#104860"/>
</svg>
