<svg width="19" height="18" viewBox="0 0 19 18" fill="none" xmlns="http://www.w3.org/2000/svg">
<g clip-path="url(#clip0_1_90)">
<path d="M9.09094 16.5C13.2331 16.5 16.5909 13.1421 16.5909 9C16.5909 4.85786 13.2331 1.5 9.09094 1.5C4.94881 1.5 1.59094 4.85786 1.59094 9C1.59094 10.1998 1.87265 11.3337 2.37354 12.3394C2.50665 12.6066 2.55095 12.912 2.47378 13.2005L2.02708 14.87C1.83316 15.5947 2.4962 16.2578 3.22095 16.0639L4.89048 15.6172C5.17889 15.54 5.48435 15.5843 5.75159 15.7174C6.75722 16.2183 7.89118 16.5 9.09094 16.5Z" stroke="#071D27" stroke-width="1.5"/>
<path d="M6.84094 9.06L8.34094 10.5L11.3409 7.5" stroke="#071D27" stroke-width="1.5" stroke-linecap="round" stroke-linejoin="round"/>
</g>
<defs>
<clipPath id="clip0_1_90">
<rect width="18" height="18" fill="white" transform="translate(0.0909424)"/>
</clipPath>
</defs>
</svg>
