<svg width="16" height="16" viewBox="0 0 16 16" fill="none" xmlns="http://www.w3.org/2000/svg">
<path d="M6.05136 2.1342L6.61064 3.13635C7.11536 4.04073 6.91275 5.22713 6.11781 6.02207C6.11781 6.02207 5.15358 6.98631 6.90183 8.73456C8.65005 10.4828 9.61432 9.51858 9.61432 9.51858C10.4093 8.72364 11.5957 8.52102 12.5 9.02575L13.5022 9.58503C14.8678 10.3472 15.0291 12.2623 13.8287 13.4627C13.1075 14.184 12.2239 14.7452 11.2471 14.7822C9.60276 14.8446 6.81028 14.4284 4.00913 11.6273C1.20797 8.8261 0.791821 6.03363 0.854157 4.38931C0.891186 3.41253 1.45242 2.52893 2.1737 1.80765C3.37407 0.607288 5.28922 0.768568 6.05136 2.1342Z" stroke="#071D27" stroke-linecap="round"/>
</svg>
