<svg width="133" height="136" viewBox="0 0 133 136" fill="none" xmlns="http://www.w3.org/2000/svg">
<path d="M132.5 75.5C132.5 112.279 106.779 136 70 136C33.2213 136 3.5 107.779 3.5 71C3.5 34.2213 35.2213 0 72 0C108.779 0 132.5 38.7213 132.5 75.5Z" fill="#6CE6CE"/>
<path d="M37.6798 108.993C37.5758 106.931 38.2383 105.052 38.6585 103.139C40.2191 96.0346 41.8256 88.9406 43.4148 81.8427C43.5388 81.2893 43.6595 80.735 43.7888 80.1828C43.8461 79.938 43.8352 79.7341 43.5485 79.6525C41.7273 79.1342 40.5072 77.732 39.1192 76.5944C36.1633 74.1716 33.2632 71.6809 30.3193 69.2434C27.2686 66.7175 27.1912 62.6074 30.3006 60.1475C33.8553 57.3352 37.5126 54.6524 41.125 51.9128C42.0808 51.1879 43.0487 50.4781 43.9878 49.7321C46.2725 47.9172 50.2258 47.8535 52.475 49.591C54.3722 51.0566 56.6819 51.4041 59.0717 51.1509C60.9331 50.9537 62.551 50.2397 64.1327 49.236C66.4319 47.777 68.8521 48.048 71.2096 49.2407C72.2593 49.7717 73.0732 50.6109 73.9368 51.381C76.8966 54.0202 79.855 56.6611 82.799 59.3179C83.1266 59.6135 83.3862 59.7039 83.7379 59.4099C83.8613 59.3067 84.0066 59.2233 84.1533 59.1554C84.9429 58.7901 85.4335 58.2883 85.5888 57.331C85.7684 56.2246 86.5249 55.3941 87.5875 54.9521C88.0856 54.7448 88.2281 54.4444 88.2242 53.9293C88.2033 51.1221 88.2095 48.3146 88.22 45.5073C88.2215 45.123 88.1409 44.7878 87.9123 44.4816C86.6471 42.7877 85.3806 41.0947 84.1233 39.3949C83.8551 39.0323 83.486 39.0022 83.0918 39.0023C80.3251 39.0027 77.5584 39.0046 74.7917 39.0011C73.6099 38.9996 73.0946 38.483 73.0892 37.2825C73.0814 35.533 73.0819 33.7834 73.0889 32.0339C73.0938 30.8112 73.6679 30.2459 74.8851 30.2449C77.7942 30.2427 80.7038 30.2779 83.6123 30.2338C91.9522 30.1073 100.292 30.1713 108.632 30.1512C108.876 30.1507 109.123 30.1438 109.364 30.1733C110.398 30.2999 110.877 30.8324 110.88 31.8736C110.886 33.7045 110.884 35.5354 110.88 37.3663C110.877 38.406 110.3 38.9937 109.261 38.9965C106.515 39.0039 103.769 39.0091 101.022 38.9926C100.51 38.9896 100.156 39.1321 99.8392 39.5633C98.6849 41.1364 97.4969 42.6851 96.3056 44.2306C95.992 44.6374 95.8551 45.0586 95.8587 45.5775C95.878 48.3848 95.8711 51.1922 95.8643 53.9996C95.8634 54.3718 95.9154 54.6791 96.3073 54.8438C98.1042 55.599 98.7358 57.0927 98.7773 58.8983C98.8213 60.8095 98.8191 62.7231 98.7831 64.6347C98.7502 66.3826 97.9719 67.7178 96.3719 68.4979C95.98 68.6889 95.8588 68.9365 95.8618 69.3543C95.879 71.6936 95.8756 74.0332 95.8722 76.3726C95.8702 77.7458 94.9596 78.6581 93.5822 78.6688C92.5244 78.6771 91.4664 78.6807 90.4086 78.6682C89.0347 78.652 88.217 77.8193 88.2156 76.4538C88.2136 74.5211 88.2169 72.5885 88.2104 70.6559C88.2097 70.4418 88.2744 70.2137 88.1013 69.9384C87.4805 70.4124 86.8646 70.8654 86.2673 71.3419C84.7802 72.5284 83.1441 73.1426 81.2236 72.6867C80.4535 72.5039 79.8127 72.0892 79.2289 71.5632C76.9777 69.5348 74.7196 67.5141 72.4625 65.4924C72.2987 65.3458 72.1216 65.2142 71.9484 65.0737C71.7403 65.2679 71.8226 65.4837 71.8224 65.6734C71.8175 69.3962 71.8213 73.119 71.8184 76.8418C71.8175 78.0303 72.3151 78.9409 73.2749 79.6355C74.4929 80.517 75.811 81.2648 76.9326 82.274C78.8238 83.9757 79.8639 86.095 79.8717 88.6609C79.8869 93.645 79.8757 98.6291 79.8763 103.613C79.8764 104.505 79.8784 104.501 80.795 104.51C81.8702 104.52 82.9599 104.44 84.0087 104.713C85.7095 105.155 86.9183 106.722 86.9486 108.476C86.9728 109.879 86.9618 111.283 86.9521 112.687C86.9464 113.51 86.4508 114.132 85.6555 114.31C85.3412 114.38 85.0121 114.415 84.6898 114.415C79.2176 114.41 73.7453 114.402 68.273 114.382C66.6701 114.376 66.0042 113.702 66.0231 112.102C66.04 110.66 65.9171 109.214 66.0995 107.776C66.2419 106.654 66.8332 105.795 67.7696 105.206C68.283 104.882 68.4551 104.498 68.4519 103.904C68.4302 99.7952 68.4435 95.6858 68.4377 91.5764C68.4364 90.6697 68.1495 89.8426 67.3189 89.4115C64.6871 88.0455 62.0262 86.7356 59.3617 85.3965C58.9931 85.7959 58.927 86.2728 58.7846 86.7001C56.2053 94.4406 53.6538 102.19 51.063 109.927C50.1847 112.549 48.393 114.279 45.6598 114.869C42.1098 115.636 38.0033 112.976 37.6798 108.993ZM49.7105 104.863C50.3807 102.861 51.0533 100.86 51.7206 98.8569C53.3696 93.9077 55.0005 88.9524 56.6726 84.011C57.2279 82.3701 58.6979 81.7878 60.2474 82.5603C63.0128 83.939 65.7632 85.348 68.5133 86.7572C69.7682 87.4002 70.6099 88.4105 71.0263 89.7595C71.256 90.5037 71.2865 91.2785 71.2883 92.0495C71.2975 95.996 71.305 99.9425 71.2888 103.889C71.2866 104.419 71.4411 104.603 71.9816 104.592C73.4252 104.562 74.8704 104.565 76.3141 104.595C76.8581 104.606 77.0151 104.399 77.0135 103.881C76.9978 98.7545 76.9979 93.6282 76.9976 88.5019C76.9975 87.2481 76.5345 86.1707 75.7888 85.1896C74.9155 84.041 73.6861 83.3288 72.4891 82.6193C70.0159 81.1534 68.8562 79.1005 68.9265 76.1815C69.0357 71.6477 68.9566 67.1094 68.9555 62.573C68.9554 62.2062 68.9633 61.8423 69.046 61.4819C69.2267 60.694 69.8124 60.2879 70.6109 60.373C71.0659 60.4214 71.4022 60.6626 71.7247 60.9508C74.8483 63.7418 77.9758 66.5285 81.0945 69.325C81.854 70.0061 82.6865 70.1123 83.5712 69.6642C84.6293 69.1281 85.4377 68.2625 86.3966 67.5009C84.9554 65.8516 85.5619 63.865 85.3631 61.9826C84.7825 62.1217 84.3769 62.4678 83.9315 62.7313C83.1654 63.1845 82.6466 63.1673 81.9907 62.5768C80.1319 60.9034 78.292 59.2089 76.4346 57.5339C74.5018 55.7908 72.5575 54.0605 70.6178 52.3251C69.3717 51.2103 66.7188 50.7192 65.2931 51.8536C63.6619 53.1515 61.7491 53.7935 59.6896 54.032C56.5324 54.3976 53.5343 53.9134 50.9376 52.0238C49.408 50.9106 47.0285 51.0652 45.6526 52.1185C41.6975 55.1463 37.7032 58.123 33.7315 61.1292C32.9882 61.6918 32.1757 62.1746 31.5786 62.9159C30.5635 64.1761 30.7326 65.8021 31.97 66.8154C32.8824 67.5626 33.7769 68.3317 34.6806 69.0896C37.4849 71.4409 40.2913 73.7897 43.0932 76.1438C43.7708 76.713 44.5161 77.098 45.4269 77.0102C47.2289 76.8366 48.5007 75.8413 49.4275 74.3525C49.7006 73.9138 49.7685 73.4346 49.4066 72.9878C49.0606 72.5606 48.625 72.5468 48.1417 72.7111C47.4894 72.9328 46.9142 72.8254 46.407 72.3236C46.0758 71.9959 45.6931 71.7205 45.3379 71.4165C43.3293 69.6977 41.3135 67.9873 39.3183 66.2532C38.3321 65.396 38.3959 64.3745 39.4264 63.6007C40.4669 62.8194 41.4968 62.0242 42.5364 61.2417C43.6571 60.3982 44.7741 59.5491 45.9117 58.7289C46.4469 58.343 47.0633 58.3111 47.6465 58.6111C48.2143 58.9033 48.3705 59.4524 48.3803 60.0526C48.3832 60.2357 48.381 60.4188 48.381 60.6019C48.3811 63.4091 48.3916 66.2165 48.3718 69.0236C48.3682 69.5304 48.5275 69.7311 49.0346 69.6788C49.3149 69.6499 49.5939 69.6818 49.8753 69.7695C51.6964 70.3365 52.9979 72.6915 52.442 74.5969C51.6942 77.1602 49.7657 78.5809 47.403 79.4967C47.0075 79.6501 46.7975 79.8139 46.7104 80.2134C46.4686 81.3224 46.1995 82.4255 45.9503 83.5329C44.2911 90.9064 42.6303 98.2795 40.9819 105.655C40.7745 106.583 40.4325 107.509 40.4765 108.46C40.5545 110.146 41.9079 111.645 43.5317 112C45.2083 112.366 46.9735 111.608 47.8009 110.093C48.6823 108.478 49.0506 106.667 49.7105 104.863ZM107.985 33.4695C107.902 32.9546 107.49 33.1356 107.207 33.1355C97.0781 33.1312 86.9489 33.1373 76.8196 33.1421C76.6976 33.1422 76.5752 33.1513 76.4536 33.1447C76.0826 33.1245 75.9514 33.3025 75.9651 33.6632C75.9844 34.171 75.9691 34.68 75.9693 35.1885C75.9697 36.1014 75.9699 36.1037 76.8619 36.1037C86.9708 36.1042 97.0797 36.104 107.189 36.1039C107.29 36.1039 107.393 36.0965 107.494 36.1039C107.866 36.1314 107.999 35.9489 107.992 35.5918C107.98 34.9208 107.989 34.2494 107.985 33.4695ZM95.9025 60.6221C95.9023 60.0736 95.914 59.5248 95.8994 58.9767C95.8703 57.8898 95.3963 57.4315 94.3139 57.4303C92.7904 57.4285 91.2669 57.4284 89.7433 57.4323C88.7063 57.435 88.3029 57.8338 88.3007 58.8649C88.2967 60.7744 88.2967 62.6839 88.3007 64.5934C88.3027 65.5516 88.7564 66.0047 89.7231 66.0088C91.206 66.0152 92.6889 66.0121 94.1718 66.0103C95.4276 66.0089 95.8913 65.5505 95.9015 64.2786C95.9109 63.1005 95.9028 61.9222 95.9025 60.6221ZM77.3315 107.469C74.9544 107.468 72.5773 107.462 70.2003 107.469C69.3021 107.472 68.9021 107.882 68.8915 108.775C68.8839 109.405 68.9299 110.038 68.879 110.663C68.8287 111.282 69.0431 111.466 69.6617 111.461C72.7496 111.436 75.8379 111.455 78.926 111.457C80.4295 111.458 81.933 111.445 83.4363 111.46C83.9104 111.465 84.0916 111.285 84.0709 110.811C84.0435 110.182 84.0678 109.551 84.0647 108.921C84.0596 107.889 83.6593 107.475 82.6343 107.471C80.9075 107.463 79.1805 107.469 77.3315 107.469ZM93.6889 39.0009C91.6704 39.0009 89.6518 39.0009 87.4559 39.0009C88.5356 40.4379 89.4892 41.7228 90.4612 42.9935C90.8851 43.5477 91.1031 44.1455 91.1005 44.8506C91.0897 47.7157 91.097 50.581 91.1046 53.4462C91.1079 54.6577 90.9607 54.5033 92.229 54.5489C92.8187 54.5701 92.9923 54.3739 92.9875 53.7885C92.9626 50.7609 92.9838 47.733 92.9721 44.7053C92.9698 44.1103 93.1162 43.5852 93.4738 43.1152C94.1256 42.2584 94.7905 41.4112 95.4244 40.5414C95.7735 40.0625 96.2277 39.6509 96.4957 39.001C95.5508 39.001 94.6809 39.001 93.6889 39.0009ZM92.0957 68.902C91.0294 68.9151 91.103 68.7944 91.1027 69.8792C91.1023 71.4216 91.0927 72.9641 91.1051 74.5064C91.1152 75.7607 90.8696 75.677 92.3241 75.7028C92.8281 75.7118 92.9918 75.539 92.9848 75.0354C92.9602 73.2498 92.9504 71.4631 92.9885 69.678C93.0015 69.0674 92.8348 68.7935 92.0957 68.902ZM43.3494 64.3023C43.0525 64.533 42.7557 64.7638 42.4212 65.0238C43.4267 65.931 44.3607 66.7929 45.4562 67.5975C45.4562 65.925 45.4562 64.376 45.4562 62.7478C44.6848 63.2046 44.0702 63.7533 43.3494 64.3023Z" fill="black"/>
<path d="M48.1583 33.5585C49.0349 29.4825 52.5721 26.3598 56.7163 25.8304C61.2164 25.2556 65.3517 27.7615 67.1011 31.6076C67.7032 32.9312 68.0799 34.3155 68.034 35.7863C67.9796 37.5273 68.1699 39.273 67.7987 41.0075C66.9257 45.0879 63.2796 48.4055 59.1233 48.8997C53.8607 49.5256 48.6484 45.5879 48.0574 40.2816C47.8105 38.0651 47.7811 35.8288 48.1583 33.5585ZM60.4632 29.0947C56.722 27.5966 52.2281 29.747 51.1241 33.7726C50.554 35.8512 50.6786 38.011 50.9727 40.1188C51.4139 43.2807 54.4168 45.8462 57.5353 46.0038C61.0342 46.1807 64.0853 43.8149 64.9074 40.6436C65.2868 39.1804 65.1231 37.6958 65.136 36.2199C65.1655 32.8606 63.6075 30.5026 60.4632 29.0947Z" fill="black"/>
</svg>
