<svg width="130" height="136" viewBox="0 0 130 136" fill="none" xmlns="http://www.w3.org/2000/svg">
<path d="M129.5 75.5C129.5 112.279 103.779 136 67 136C30.2213 136 0.5 107.779 0.5 71C0.5 34.2213 32.2213 0 69 0C105.779 0 129.5 38.7213 129.5 75.5Z" fill="#6CE6CE"/>
<path d="M97.8457 92.7013C97.9368 82.9045 97.8703 73.1074 97.9174 63.3107C97.928 61.1216 97.9187 58.9315 97.9587 56.7423C98.0811 50.0443 97.9776 43.3458 98.0128 36.6476C98.0184 35.5921 97.7562 35.491 96.8438 35.4889C94.6544 35.484 92.4644 35.509 90.2753 35.5184C81.4064 35.5566 72.5371 35.5394 63.668 35.5207C63.1751 35.5197 62.7437 35.8467 62.2802 35.7402C61.8347 35.6378 61.4044 35.5293 60.9404 35.5295C50.0117 35.5357 39.083 35.5343 28.1543 35.5343C27.0919 35.5343 26.874 35.7522 26.874 36.8146C26.874 47.1681 26.8777 57.5216 26.8623 67.8751C26.8616 68.3483 27.1707 68.778 27.0708 69.205C26.9703 69.6343 26.8712 70.048 26.8714 70.4913C26.8748 80.7892 26.8836 91.087 26.8629 101.385C26.8601 102.794 26.7438 104.204 26.7615 105.615C26.773 106.533 27.0137 106.784 27.9317 106.784C39.0274 106.785 50.1231 106.784 61.2188 106.787C61.6177 106.787 61.9855 106.548 62.3321 106.548C62.6786 106.548 63.0464 106.787 63.4453 106.787C71.7578 106.784 80.0703 106.784 88.3828 106.784C88.6426 106.784 88.9024 106.784 89.1621 106.784" stroke="black" stroke-width="2" stroke-linecap="round" stroke-linejoin="round"/>
<path d="M62.0537 69.0996C50.4385 69.0706 38.8232 68.9898 27.208 69.0996" stroke="black" stroke-width="2" stroke-linecap="round" stroke-linejoin="round"/>
<path d="M62.3877 35.8682C62.3877 46.5186 62.3849 57.1689 62.3967 67.8193C62.3973 68.289 62.1461 68.7186 62.1906 69.1526C62.2341 69.5764 62.4189 69.9881 62.3911 70.4358C62.3728 70.7315 62.3877 71.0293 62.3877 71.3262" stroke="black" stroke-width="2" stroke-linecap="round" stroke-linejoin="round"/>
<path d="M76.3037 86.9678C76.7861 86.7081 77.2691 86.4493 77.75 86.1868C77.7942 86.1627 77.8382 86.1208 77.8604 86.0763C78.4648 84.8612 79.5194 84.1069 80.5767 83.3318C80.9765 83.0387 81.1251 82.4751 81.2886 82.0051C81.3838 81.7314 81.1026 81.4414 80.8671 81.2357C79.7023 80.2181 79.1855 78.9056 79.21 77.3938C79.2276 76.3163 79.5782 75.2965 80.1527 74.393C81.9284 71.6008 83.6486 68.7724 85.5927 66.0888C86.6813 64.5861 86.6882 63.0352 85.32 61.6419C84.8653 61.1789 84.4442 60.6712 83.8188 60.4149C83.7809 60.3994 83.7356 60.4585 83.7011 60.3625C83.3601 59.4141 82.5132 58.8848 81.8632 58.196C81.2686 57.5662 80.8955 57.5834 80.2576 58.1914C79.5263 58.8884 78.7995 59.5906 78.0867 60.3065C76.1889 62.2125 74.3044 64.1316 72.4053 66.0363C71.4141 67.0304 70.3944 67.996 69.4028 68.9898C64.0003 74.4047 58.6025 79.8243 53.2031 85.2422C53.0919 85.3537 52.9645 85.4531 52.8719 85.5783C52.4662 86.1261 52.4072 86.4226 52.8839 86.8974C53.5893 87.6 54.1296 88.5001 55.0979 88.9109C55.2915 88.993 55.3549 89.1603 55.4234 89.3086C56.0104 90.5808 56.9875 91.2827 58.3778 91.4904C59.0682 91.5936 59.6486 91.3854 60.2129 91.0798C60.7638 90.7813 61.3001 90.4684 61.9423 90.419" stroke="black" stroke-width="2" stroke-linecap="round" stroke-linejoin="round"/>
<path d="M83.6514 60.4717C74.1712 69.9545 64.6714 79.4177 55.2627 88.9717" stroke="black" stroke-width="2" stroke-linecap="round" stroke-linejoin="round"/>
<path d="M80.7568 83.3496C83.6885 86.0029 86.6268 88.649 89.5494 91.3121C91.5099 93.0985 93.4288 94.9309 95.4018 96.7031C97.4931 98.5815 99.6118 100.43 101.629 102.389C102.16 102.905 102.589 103.499 102.798 104.224C103.131 105.377 102.695 106.363 102.01 107.221C100.605 108.979 98.4078 108.859 96.8495 107.224C95.7622 106.083 94.7309 104.889 93.6704 103.723C91.4083 101.235 89.1409 98.7524 86.8807 96.2629C85.1323 94.3371 83.3855 92.4098 81.6495 90.4728C80.3774 89.0534 79.124 87.6172 77.8623 86.1885" stroke="black" stroke-width="2" stroke-linecap="round" stroke-linejoin="round"/>
<path d="M76.3594 87.6357C76.3609 87.2639 76.2956 86.9545 75.9233 86.7299C75.6887 86.5885 75.5392 86.3028 75.3581 86.0766C74.1804 84.6058 72.6114 84.4218 70.9055 84.7474C70.1289 84.8956 69.3969 85.1862 68.733 85.6312C66.9109 86.8529 64.9637 87.8764 63.1677 89.1396C62.9402 89.2996 62.6854 89.4411 62.5071 89.6466C62.1945 90.0069 61.8259 90.3645 62.2096 90.9275C62.3874 91.1884 62.3923 91.5355 62.3917 91.8662C62.3855 95.7256 62.4055 99.5851 62.3756 103.444C62.3678 104.446 62.3407 105.448 62.3321 106.45" stroke="black" stroke-width="2" stroke-linecap="round" stroke-linejoin="round"/>
<path d="M48.583 52.5674C48.2551 52.9182 47.919 53.2418 47.4741 53.4667C46.0933 54.1645 45.081 55.2384 44.4091 56.6313C44.2229 57.0172 43.9442 57.3114 43.5732 57.5215" stroke="white" stroke-width="2" stroke-linecap="round" stroke-linejoin="round"/>
<path d="M43.5732 45.3867C43.5732 45.999 43.5689 46.6114 43.5763 47.2236C43.5781 47.376 43.5045 47.5524 43.684 47.6698C44.2784 48.0584 44.5035 48.7158 44.8548 49.2824C45.4116 50.1804 46.1532 50.8916 47.082 51.3949C47.5797 51.6646 48.0996 51.916 48.4566 52.3569C48.6147 52.5521 48.7598 52.5011 48.9171 52.5075C49.5489 52.5327 50.1867 52.4495 50.8095 52.623" stroke="white" stroke-width="2" stroke-linecap="round" stroke-linejoin="round"/>
<path d="M43.5732 47.6133C43.1539 47.8627 42.9012 48.242 42.6764 48.6676C41.995 49.9581 41.0298 50.9785 39.7354 51.6823C39.3167 51.9099 38.9418 52.212 38.6748 52.623" stroke="white" stroke-width="2" stroke-linecap="round" stroke-linejoin="round"/>
<path d="M35.7803 52.7901C36.541 52.7344 37.3017 52.678 38.0625 52.6234C38.3939 52.5996 38.6742 52.6177 38.9131 52.9457C39.1156 53.2236 39.4243 53.4651 39.7376 53.6141C41.0545 54.2405 42.0175 55.1965 42.6329 56.5168C42.72 56.7037 42.8591 56.8896 43.0215 57.0141C43.6368 57.4857 43.6216 58.1267 43.5821 58.8023C43.5605 59.1705 43.6289 59.544 43.6567 59.9151" stroke="white" stroke-width="2" stroke-linecap="round" stroke-linejoin="round"/>
<path d="M45.7998 93.0352C45.1689 93.0352 44.4808 92.8765 43.9227 93.0781C43.3197 93.296 42.9447 93.9658 42.4131 94.3823C41.9493 94.7458 41.5611 95.2041 41.2328 95.7054C40.9997 96.0615 40.7087 96.3679 40.3447 96.5977" stroke="white" stroke-width="2" stroke-linecap="round" stroke-linejoin="round"/>
<path d="M40.3447 89.417C40.1035 89.6396 39.8052 89.8251 39.6313 90.0917C39.0096 91.0449 38.2339 91.8382 37.3445 92.5413C36.8567 92.9268 36.8216 93.1194 37.2944 93.4652C38.4208 94.2892 39.2158 95.4088 40.1221 96.4306C40.2078 96.5272 40.2971 96.6066 40.2941 96.7647C40.2819 97.3954 40.289 98.0264 40.289 98.6572" stroke="white" stroke-width="2" stroke-linecap="round" stroke-linejoin="round"/>
<path d="M40.3448 87.4688C40.3448 87.6728 40.3585 87.878 40.3423 88.0809C40.2826 88.8297 40.4202 89.4342 40.9802 90.0585C41.7101 90.8721 42.3746 91.7409 43.2431 92.4179C43.4638 92.59 43.6232 92.7902 43.7403 93.0352" stroke="white" stroke-width="2" stroke-linecap="round" stroke-linejoin="round"/>
</svg>
