<svg width="133" height="132" viewBox="0 0 133 132" fill="none" xmlns="http://www.w3.org/2000/svg">
<path d="M132.5 71.5C132.5 108.279 94.2787 131.5 57.5 131.5C20.7213 131.5 0 98.7787 0 62C0 25.2213 26.7213 0 63.5 0C100.279 0 132.5 34.7213 132.5 71.5Z" fill="#6CE6CE"/>
<path d="M41.517 91.5049C41.517 87.8819 41.5153 84.3142 41.5185 80.7464C41.5192 80.0387 41.9742 79.5003 42.5979 79.443C43.2519 79.383 43.8149 79.875 43.8997 80.593C43.9211 80.7746 43.9093 80.9604 43.9093 81.1443C43.9097 86.5695 43.9095 91.9947 43.9097 97.4199C43.9097 98.2051 43.9103 98.2059 44.6849 98.2058C55.4618 98.2037 66.2387 98.2012 77.0156 98.2006C77.2536 98.2006 77.5005 98.1854 77.728 98.2404C78.2135 98.3577 78.5687 98.8708 78.5454 99.3587C78.5187 99.9163 78.0704 100.402 77.5002 100.473C77.3189 100.495 77.1329 100.483 76.949 100.483C70.2549 100.486 63.5607 100.477 56.8665 100.495C49.8236 100.513 42.7807 100.562 35.7378 100.586C34.267 100.591 32.883 100.287 31.804 99.1872C31.0555 98.4241 30.6468 97.4799 30.5973 96.4209C30.3535 91.2024 30.3911 85.9757 30.5363 80.761C30.6933 75.1204 32.9237 70.274 36.9554 66.272C40.5087 62.7449 44.7855 60.7055 49.6894 59.8893C51.3019 59.6209 52.918 59.4511 54.5564 59.4585C58.4368 59.4759 62.3173 59.4487 66.1976 59.4706C68.2535 59.4822 70.3022 59.6298 72.3079 60.1272C73.11 60.3262 73.4322 60.8515 73.2441 61.5893C73.1007 62.1522 72.4022 62.5226 71.7295 62.3475C69.9201 61.8766 68.0682 61.7759 66.2172 61.7613C61.9876 61.7279 57.757 61.7051 53.5279 61.7604C46.944 61.8465 41.5135 64.4432 37.2136 69.4278C34.9958 71.9987 33.6421 74.9617 33.1203 78.3086C32.9815 79.1989 32.9618 80.0994 32.9623 81.0001C32.9653 85.8368 32.9624 90.6736 32.9672 95.5103C32.9691 97.3601 33.8063 98.1939 35.6599 98.2009C37.3886 98.2074 39.1176 98.1848 40.8458 98.2153C41.3872 98.2248 41.5327 98.039 41.526 97.5178C41.5007 95.5321 41.5165 93.546 41.517 91.5049Z" fill="#071D27"/>
<path d="M72.4103 90.8821C69.7958 87.9934 67.8535 84.7581 66.715 81.0613C66.0311 78.8406 65.6884 76.5667 65.6781 74.2393C65.6667 71.6477 65.6186 69.0562 65.5964 66.4646C65.5827 64.8614 65.8563 64.5432 67.4396 64.3318C71.3353 63.8115 75.0373 62.7179 78.4428 60.7042C80.0823 59.7348 81.6046 58.625 82.9088 57.23C83.6814 56.4038 84.3112 56.3753 85.1237 57.1369C88.9921 60.763 93.5834 62.9016 98.7888 63.7738C99.6906 63.9249 100.599 64.0379 101.497 64.212C102.231 64.3544 102.602 64.8282 102.604 65.5755C102.612 68.5544 102.714 71.5378 102.587 74.5113C102.342 80.2704 100.315 85.3752 96.6457 89.8345C94.3864 92.5804 91.5639 94.6557 88.6793 96.6633C87.6393 97.3872 86.5945 98.1014 85.4508 98.6664C84.5122 99.1302 83.5958 99.1416 82.7196 98.6152C79.0302 96.3988 75.3675 94.1417 72.4103 90.8821ZM98.034 83.3845C99.4672 80.4977 100.244 77.4345 100.315 74.2218C100.37 71.743 100.27 69.2609 100.248 66.7802C100.245 66.4517 100.16 66.311 99.7927 66.2572C97.5244 65.9253 95.2798 65.4718 93.1217 64.6774C90.013 63.5331 87.1253 61.9871 84.5812 59.8453C84.2153 59.5373 83.9667 59.5282 83.6121 59.8656C82.8253 60.6141 81.9324 61.2331 81.0219 61.8231C77.1868 64.3078 72.9703 65.7714 68.4747 66.461C68.0195 66.5308 67.9529 66.7099 67.9548 67.0938C67.9672 69.594 67.9518 72.0945 67.9715 74.5947C67.981 75.7864 68.1126 76.973 68.3452 78.1418C69.1159 82.0134 70.8944 85.3901 73.431 88.387C76.2979 91.7742 79.8116 94.337 83.6888 96.4387C83.9816 96.5974 84.2251 96.5917 84.5134 96.4416C85.6727 95.838 86.7511 95.1059 87.8457 94.397C92.1548 91.6068 95.6406 88.0567 98.034 83.3845Z" fill="#071D27"/>
<path d="M54.4975 55.6325C49.3663 53.5566 46.1132 49.8247 44.5063 44.6208C43.9111 42.6933 43.6942 40.6982 43.8538 38.6918C44.1982 34.3634 45.9219 30.6717 49.0911 27.6685C51.5955 25.2953 54.5408 23.8518 57.9564 23.371C62.847 22.6827 67.2234 23.9437 70.9974 27.0675C74.1178 29.6503 76.0742 33.004 76.6794 37.0395C77.6523 43.5278 75.5867 48.9206 70.5407 53.0985C68.0985 55.1206 65.219 56.2215 62.0514 56.5735C59.4662 56.8608 56.9704 56.5382 54.4975 55.6325ZM74.5101 40.6634C74.4898 39.857 74.5113 39.0535 74.4201 38.2446C74.0644 35.0905 72.8471 32.3212 70.6591 30.0387C67.4832 26.7258 63.5727 25.2243 58.9802 25.6606C54.9893 26.0398 51.7153 27.83 49.2858 31.0005C46.2189 35.0028 45.4136 39.5087 46.9126 44.3133C49.0949 51.3081 56.0151 55.4524 63.1112 54.0122C69.3742 52.7411 74.0607 47.405 74.5101 40.6634Z" fill="#071D27"/>
<path d="M91.377 72.138C91.9867 71.4969 92.5795 70.8932 93.1478 70.2672C93.5112 69.8669 93.9423 69.7504 94.4425 69.8833C94.9444 70.0167 95.173 70.3946 95.2767 70.8805C95.362 71.2801 95.1539 71.5469 94.9085 71.8047C93.2858 73.5091 91.6626 75.2129 90.0389 76.9163C87.6038 79.4712 85.1662 82.0237 82.7341 84.5814C82.0509 85.2999 81.3132 85.3574 80.6326 84.6352C78.8427 82.7355 77.075 80.8146 75.3168 78.8854C74.8086 78.3278 74.8384 77.7208 75.3152 77.2687C75.8114 76.7981 76.5349 76.7896 77.0425 77.326C78.3313 78.6879 79.588 80.0801 80.8619 81.4562C81.1103 81.7245 81.3783 81.9747 81.7098 82.3057C84.9291 78.9195 88.1394 75.5427 91.377 72.138Z" fill="white"/>
</svg>
