<svg width="112" height="20" viewBox="0 0 112 20" fill="none" xmlns="http://www.w3.org/2000/svg">
<path d="M7.15316 3.40838C8.41981 1.13613 9.05314 0 10 0C10.9469 0 11.5802 1.13612 12.8468 3.40837L13.1745 3.99623C13.5345 4.64193 13.7144 4.96479 13.9951 5.17781C14.2757 5.39083 14.6251 5.4699 15.3241 5.62805L15.9605 5.77203C18.4201 6.32856 19.65 6.60682 19.9426 7.54773C20.2352 8.48864 19.3968 9.46907 17.7199 11.4299L17.2861 11.9372C16.8096 12.4944 16.5713 12.773 16.4641 13.1177C16.357 13.4624 16.393 13.8341 16.465 14.5776L16.5306 15.2544C16.7841 17.8706 16.9109 19.1787 16.1449 19.7602C15.3788 20.3417 14.2273 19.8115 11.9243 18.7512L11.3285 18.4768C10.6741 18.1755 10.3469 18.0248 10 18.0248C9.65315 18.0248 9.32593 18.1755 8.67149 18.4768L8.07567 18.7512C5.77268 19.8115 4.62118 20.3417 3.85515 19.7602C3.08912 19.1787 3.21588 17.8706 3.4694 15.2544L3.53498 14.5776C3.60703 13.8341 3.64305 13.4624 3.53586 13.1177C3.42868 12.773 3.19043 12.4944 2.71392 11.9372L2.2801 11.4299C0.603249 9.46907 -0.235175 8.48864 0.057421 7.54773C0.350017 6.60682 1.57986 6.32856 4.03954 5.77203L4.67589 5.62805C5.37485 5.4699 5.72433 5.39083 6.00494 5.17781C6.28555 4.96479 6.46553 4.64194 6.82547 3.99623L7.15316 3.40838Z" fill="white"/>
<path d="M30.1532 3.40838C31.4198 1.13613 32.0531 0 33 0C33.9469 0 34.5802 1.13612 35.8468 3.40837L36.1745 3.99623C36.5345 4.64193 36.7144 4.96479 36.9951 5.17781C37.2757 5.39083 37.6251 5.4699 38.3241 5.62805L38.9605 5.77203C41.4201 6.32856 42.65 6.60682 42.9426 7.54773C43.2352 8.48864 42.3968 9.46907 40.7199 11.4299L40.2861 11.9372C39.8096 12.4944 39.5713 12.773 39.4641 13.1177C39.357 13.4624 39.393 13.8341 39.465 14.5776L39.5306 15.2544C39.7841 17.8706 39.9109 19.1787 39.1449 19.7602C38.3788 20.3417 37.2273 19.8115 34.9243 18.7512L34.3285 18.4768C33.6741 18.1755 33.3469 18.0248 33 18.0248C32.6531 18.0248 32.3259 18.1755 31.6715 18.4768L31.0757 18.7512C28.7727 19.8115 27.6212 20.3417 26.8551 19.7602C26.0891 19.1787 26.2159 17.8706 26.4694 15.2544L26.535 14.5776C26.607 13.8341 26.643 13.4624 26.5359 13.1177C26.4287 12.773 26.1904 12.4944 25.7139 11.9372L25.2801 11.4299C23.6032 9.46907 22.7648 8.48864 23.0574 7.54773C23.35 6.60682 24.5799 6.32856 27.0395 5.77203L27.6759 5.62805C28.3749 5.4699 28.7243 5.39083 29.0049 5.17781C29.2856 4.96479 29.4655 4.64194 29.8255 3.99623L30.1532 3.40838Z" fill="white"/>
<path d="M53.1532 3.40838C54.4198 1.13613 55.0531 0 56 0C56.9469 0 57.5802 1.13612 58.8468 3.40837L59.1745 3.99623C59.5345 4.64193 59.7144 4.96479 59.9951 5.17781C60.2757 5.39083 60.6251 5.4699 61.3241 5.62805L61.9605 5.77203C64.4201 6.32856 65.65 6.60682 65.9426 7.54773C66.2352 8.48864 65.3968 9.46907 63.7199 11.4299L63.2861 11.9372C62.8096 12.4944 62.5713 12.773 62.4641 13.1177C62.357 13.4624 62.393 13.8341 62.465 14.5776L62.5306 15.2544C62.7841 17.8706 62.9109 19.1787 62.1449 19.7602C61.3788 20.3417 60.2273 19.8115 57.9243 18.7512L57.3285 18.4768C56.6741 18.1755 56.3469 18.0248 56 18.0248C55.6531 18.0248 55.3259 18.1755 54.6715 18.4768L54.0757 18.7512C51.7727 19.8115 50.6212 20.3417 49.8551 19.7602C49.0891 19.1787 49.2159 17.8706 49.4694 15.2544L49.535 14.5776C49.607 13.8341 49.643 13.4624 49.5359 13.1177C49.4287 12.773 49.1904 12.4944 48.7139 11.9372L48.2801 11.4299C46.6032 9.46907 45.7648 8.48864 46.0574 7.54773C46.35 6.60682 47.5799 6.32856 50.0395 5.77203L50.6759 5.62805C51.3749 5.4699 51.7243 5.39083 52.0049 5.17781C52.2856 4.96479 52.4655 4.64194 52.8255 3.99623L53.1532 3.40838Z" fill="white"/>
<path d="M76.1532 3.40838C77.4198 1.13613 78.0531 0 79 0C79.9469 0 80.5802 1.13612 81.8468 3.40837L82.1745 3.99623C82.5345 4.64193 82.7144 4.96479 82.9951 5.17781C83.2757 5.39083 83.6251 5.4699 84.3241 5.62805L84.9605 5.77203C87.4201 6.32856 88.65 6.60682 88.9426 7.54773C89.2352 8.48864 88.3968 9.46907 86.7199 11.4299L86.2861 11.9372C85.8096 12.4944 85.5713 12.773 85.4641 13.1177C85.357 13.4624 85.393 13.8341 85.465 14.5776L85.5306 15.2544C85.7841 17.8706 85.9109 19.1787 85.1449 19.7602C84.3788 20.3417 83.2273 19.8115 80.9243 18.7512L80.3285 18.4768C79.6741 18.1755 79.3469 18.0248 79 18.0248C78.6531 18.0248 78.3259 18.1755 77.6715 18.4768L77.0757 18.7512C74.7727 19.8115 73.6212 20.3417 72.8551 19.7602C72.0891 19.1787 72.2159 17.8706 72.4694 15.2544L72.535 14.5776C72.607 13.8341 72.643 13.4624 72.5359 13.1177C72.4287 12.773 72.1904 12.4944 71.7139 11.9372L71.2801 11.4299C69.6032 9.46907 68.7648 8.48864 69.0574 7.54773C69.35 6.60682 70.5799 6.32856 73.0395 5.77203L73.6759 5.62805C74.3749 5.4699 74.7243 5.39083 75.0049 5.17781C75.2856 4.96479 75.4655 4.64194 75.8255 3.99623L76.1532 3.40838Z" fill="white"/>
<path d="M99.1532 3.40838C100.42 1.13613 101.053 0 102 0C102.947 0 103.58 1.13612 104.847 3.40837L105.175 3.99623C105.534 4.64193 105.714 4.96479 105.995 5.17781C106.276 5.39083 106.625 5.4699 107.324 5.62805L107.96 5.77203C110.42 6.32856 111.65 6.60682 111.943 7.54773C112.235 8.48864 111.397 9.46907 109.72 11.4299L109.286 11.9372C108.81 12.4944 108.571 12.773 108.464 13.1177C108.357 13.4624 108.393 13.8341 108.465 14.5776L108.531 15.2544C108.784 17.8706 108.911 19.1787 108.145 19.7602C107.379 20.3417 106.227 19.8115 103.924 18.7512L103.329 18.4768C102.674 18.1755 102.347 18.0248 102 18.0248C101.653 18.0248 101.326 18.1755 100.671 18.4768L100.076 18.7512C97.7727 19.8115 96.6212 20.3417 95.8551 19.7602C95.0891 19.1787 95.2159 17.8706 95.4694 15.2544L95.535 14.5776C95.607 13.8341 95.643 13.4624 95.5359 13.1177C95.4287 12.773 95.1904 12.4944 94.7139 11.9372L94.2801 11.4299C92.6032 9.46907 91.7648 8.48864 92.0574 7.54773C92.35 6.60682 93.5799 6.32856 96.0395 5.77203L96.6759 5.62805C97.3749 5.4699 97.7243 5.39083 98.0049 5.17781C98.2856 4.96479 98.4655 4.64194 98.8255 3.99623L99.1532 3.40838Z" fill="white"/>
</svg>
